<?xml version="1.0" encoding="UTF-8"?>
<svg width="53px" height="52px" viewBox="0 0 53 52" version="1.1" xmlns="http://www.w3.org/2000/svg" xmlns:xlink="http://www.w3.org/1999/xlink">
    <title>Group 22</title>
    <defs>
        <polygon id="path-1" points="0 0 53 0 53 13 0 13"></polygon>
        <polygon id="path-3" points="0 4.85380237e-15 53 4.85380237e-15 53 27 0 27"></polygon>
        <polygon id="path-5" points="0.1799 0 0.8201 0 0.8201 5 0.1799 5"></polygon>
    </defs>
    <g id="Design" stroke="none" stroke-width="1" fill="none" fill-rule="evenodd">
        <g id="Tablet" transform="translate(-39.000000, -20.000000)">
            <g id="title" transform="translate(39.000000, 20.000000)">
                <g id="Group-22" transform="translate(0.000000, -0.000000)">
                    <g id="Group-3" transform="translate(0.000000, 16.000000)">
                        <mask id="mask-2" fill="white">
                            <use xlink:href="#path-1"></use>
                        </mask>
                        <g id="Clip-2"></g>
                        <path d="M53.0000688,7.39311643 L53.0000688,12.6119925 C52.6941272,12.031729 52.370998,11.0739446 52.1716204,10.4796988 C51.4669237,8.38585641 50.6659757,6.01236892 48.4968848,6.01236892 C46.3243564,6.01236892 45.5234084,8.38585641 44.8187117,10.4796988 C44.5608958,11.2417316 44.1037023,12.6015058 43.7427601,13 C43.3818179,12.6015058 42.9211868,11.2417316 42.6668085,10.4796988 C41.9586742,8.38585641 41.1577262,6.01236892 38.9886353,6.01236892 C36.8195445,6.01236892 36.0185965,8.38585641 35.3138997,10.4796988 C35.0560839,11.2417316 34.5988904,12.6015058 34.2379482,13 C33.8770059,12.6015058 33.4163749,11.2417316 33.1619966,10.4796988 C32.4538623,8.38585641 31.6563519,6.01236892 29.4838234,6.01236892 C27.3147325,6.01236892 26.5137846,8.38585641 25.8090878,10.4796988 C25.551272,11.2417316 25.0940785,12.6015058 24.7331362,13 C24.372194,12.6015058 23.911563,11.2417316 23.6571847,10.4796988 C22.9490504,8.38585641 22.15154,6.01236892 19.9790115,6.01236892 C17.8099206,6.01236892 17.0089726,8.38585641 16.3008384,10.4796988 C16.04646,11.2417316 15.585829,12.6015058 15.2283243,13 C14.8673821,12.6015058 14.4067511,11.2417316 14.1523727,10.4796988 C13.4442385,8.38585641 12.6432905,6.01236892 10.4741996,6.01236892 C8.30510871,6.01236892 7.50416073,8.38585641 6.799464,10.4796988 C6.54164813,11.2417316 6.08445464,12.6015058 5.72351242,13 C5.36257019,12.6015058 4.90537671,11.2417316 4.64756083,10.4796988 C3.94286411,8.38585641 3.14191613,6.01236892 0.969387689,6.01236892 C0.608445464,6.01236892 0.28875378,6.07878462 0,6.19763377 C0.560319834,2.68109707 3.56129662,0 7.17415641,0 L45.7296611,0 C49.7447136,0 53.0000688,3.31029847 53.0000688,7.39311643" id="Fill-1" fill="#FFFFFF" mask="url(#mask-2)"></path>
                    </g>
                    <g id="Group-6" transform="translate(0.000000, 25.000000)">
                        <mask id="mask-4" fill="white">
                            <use xlink:href="#path-3"></use>
                        </mask>
                        <g id="Clip-5"></g>
                        <path d="M53.0000686,6.81745731 L53.0000686,19.7795066 C53.0000686,23.7654649 49.7506147,27 45.7428405,27 L7.25722809,27 C3.2494539,27 0,23.7654649 0,19.7795066 L0,2.44212524 C0.2539172,1.69411765 0.710281899,0.385958254 1.06370719,4.85380237e-15 C1.42399511,0.389373814 1.88379112,1.71802657 2.13770832,2.4626186 C2.84455891,4.5085389 3.64062364,6.82770398 5.80921379,6.82770398 C7.97437262,6.82770398 8.77386867,4.5085389 9.47728794,2.4626186 C9.73463646,1.72144213 10.1910012,0.389373814 10.5512891,4.85380237e-15 C10.911577,0.389373814 11.3679417,1.71802657 11.6252902,2.4626186 C12.3287095,4.5085389 13.1282055,6.82770398 15.2933644,6.82770398 C17.4619545,6.82770398 18.2614506,4.5085389 18.9648698,2.4626186 C19.2222183,1.71802657 19.678583,0.389373814 20.038871,4.85380237e-15 C20.3991589,0.389373814 20.8555236,1.71802657 21.1128721,2.4626186 C21.8162914,4.5085389 22.6157874,6.82770398 24.7843776,6.82770398 C26.9495364,6.82770398 27.7490324,4.5085389 28.4524517,2.4626186 C28.7098002,1.71802657 29.1661649,0.389373814 29.5264528,4.85380237e-15 C29.8867408,0.389373814 30.3465368,1.71802657 30.600454,2.4626186 C31.3073046,4.5085389 32.1068006,6.82770398 34.2719594,6.82770398 C36.4371183,6.82770398 37.2366143,4.5085389 37.9400336,2.4626186 C38.1973821,1.72144213 38.6537468,0.389373814 39.0140347,4.85380237e-15 C39.3743226,0.389373814 39.8306873,1.71802657 40.0880359,2.4626186 C40.7914551,4.5085389 41.5909512,6.82770398 43.7595413,6.82770398 C45.9247001,6.82770398 46.7241962,4.5085389 47.4276155,2.4626186 C47.684964,1.71802657 48.14476,0.389373814 48.5050479,4.85380237e-15 C48.8619045,0.389373814 49.3217005,1.71802657 49.579049,2.4626186 C50.2550178,4.42998102 51.0202007,6.64667932 53.0000686,6.81745731" id="Fill-4" fill="#FFFFFF" mask="url(#mask-4)"></path>
                    </g>
                    <g id="Group-9" transform="translate(1.000000, 22.000000)">
                        <mask id="mask-6" fill="white">
                            <use xlink:href="#path-5"></use>
                        </mask>
                        <g id="Clip-8"></g>
                        <path d="M0.1801,5 L0.1801,1.15618661 C0.1801,0.760649087 0.2701,0.37525355 0.4601,0 L0.1801,5 Z" id="Fill-7" fill="#FFFFFF" mask="url(#mask-6)"></path>
                    </g>
                    <path d="M35.7933009,14 L33.2066991,14 C32.5403664,14 32,13.4822117 32,12.8437205 L32,7.15627947 C32,6.51778826 32.5403664,6 33.2066991,6 L35.7933009,6 C36.4596336,6 37,6.51778826 37,7.15627947 L37,12.8437205 C37,13.4822117 36.4596336,14 35.7933009,14" id="Fill-10" fill="#FFFFFF"></path>
                    <path d="M27.7933009,14 L25.2066991,14 C24.5403664,14 24,13.4822117 24,12.8437205 L24,7.15627947 C24,6.51778826 24.5403664,6 25.2066991,6 L27.7933009,6 C28.4596336,6 29,6.51778826 29,7.15627947 L29,12.8437205 C29,13.4822117 28.4596336,14 27.7933009,14" id="Fill-12" fill="#FFFFFF"></path>
                    <path d="M19.7933009,14 L17.2066991,14 C16.5403664,14 16,13.4822117 16,12.8437205 L16,7.15627947 C16,6.51778826 16.5403664,6 17.2066991,6 L19.7933009,6 C20.4596336,6 21,6.51778826 21,7.15627947 L21,12.8437205 C21,13.4822117 20.4596336,14 19.7933009,14" id="Fill-14" fill="#FFFFFF"></path>
                    <path d="M34.5964351,0 C34.5964351,0 32.9607463,1.94883429 33.0007209,3.61910451 C33.041059,5.28937473 37,5.62365162 37,3.61910451 C37,1.6145574 34.6909206,2.50559103 34.5964351,0" id="Fill-16" fill="#FFFFFF"></path>
                    <path d="M25.5964351,0 C25.5964351,0 23.9607463,1.94883429 24.0007209,3.61910451 C24.041059,5.28937473 28,5.62365162 28,3.61910451 C28,1.6145574 25.6909206,2.50559103 25.5964351,0" id="Fill-18" fill="#FFFFFF"></path>
                    <path d="M17.5964351,0 C17.5964351,0 15.9607463,1.94883429 16.0007209,3.61910451 C16.0414224,5.28937473 20,5.62365162 20,3.61910451 C20,1.6145574 17.6909206,2.50559103 17.5964351,0" id="Fill-20" fill="#FFFFFF"></path>
                </g>
            </g>
        </g>
    </g>
</svg>